<svg width="15" height="15" viewBox="0 0 15 15" fill="none" xmlns="http://www.w3.org/2000/svg">
<path d="M0 6.46875H3V14.4688H0V6.46875ZM6.707 14.1757C6.9 14.3657 7.132 14.4657 7.384 14.4688H11.5C11.756 14.4688 12.012 14.3707 12.207 14.1757L14.707 11.6757C14.897 11.4858 14.995 11.2188 15 10.9688V7.46875C15 6.91575 14.555 6.46875 14 6.46875H9L10.5 3.96875C10.5 3.96875 11 3.17675 11 2.46875V1.46875C11 0.91575 10.553 0.46875 10 0.46875L9 2.46875L5 6.46875V12.4688L6.707 14.1757Z" fill="#959595"/>
</svg>
